<?xml version="1.0" encoding="UTF-8"?>
<svg width="40" height="40" viewBox="0 0 40 40" fill="none" xmlns="http://www.w3.org/2000/svg">
  <circle cx="20" cy="20" r="19" stroke="#4CAF50" stroke-width="2"/>
  <path d="M20 8C14.48 8 10 12.48 10 18C10 25 20 32 20 32C20 32 30 25 30 18C30 12.48 25.52 8 20 8ZM20 21C18.34 21 17 19.66 17 18C17 16.34 18.34 15 20 15C21.66 15 23 16.34 23 18C23 19.66 21.66 21 20 21Z" fill="#4CAF50"/>
  <path d="M20 12C16.69 12 14 14.69 14 18C14 21.31 16.69 24 20 24C23.31 24 26 21.31 26 18C26 14.69 23.31 12 20 12ZM20 22C17.79 22 16 20.21 16 18C16 15.79 17.79 14 20 14C22.21 14 24 15.79 24 18C24 20.21 22.21 22 20 22Z" fill="#4CAF50"/>
</svg>
